<?xml version="1.0" encoding="UTF-8"?>
<svg xmlns="http://www.w3.org/2000/svg" width="200pt" height="300pt" viewBox="0 0 200 300">
<title>Test</title>
<g id="paper">
<rect x="0" y="0" width="200" height="300" fill="#ffffff"/>
<line x1="0" y1="17.321" x2="200" y2="17.321" fill="none" stroke="#d0d8e8" stroke-width="0.5" stroke-linecap="round" stroke-linejoin="round"/>
<line x1="0" y1="34.641" x2="200" y2="34.641" fill="none" stroke="#d0d8e8" stroke-width="0.5" stroke-linecap="round" stroke-linejoin="round"/>
<line x1="0" y1="51.962" x2="200" y2="51.962" fill="none" stroke="#d0d8e8" stroke-width="0.5" stroke-linecap="round" stroke-linejoin="round"/>
<line x1="0" y1="69.282" x2="200" y2="69.282" fill="none" stroke="#d0d8e8" stroke-width="0.5" stroke-linecap="round" stroke-linejoin="round"/>
<line x1="0" y1="86.603" x2="200" y2="86.603" fill="none" stroke="#d0d8e8" stroke-width="0.5" stroke-linecap="round" stroke-linejoin="round"/>
<line x1="0" y1="103.923" x2="200" y2="103.923" fill="none" stroke="#d0d8e8" stroke-width="0.5" stroke-linecap="round" stroke-linejoin="round"/>
<line x1="0" y1="121.244" x2="200" y2="121.244" fill="none" stroke="#d0d8e8" stroke-width="0.5" stroke-linecap="round" stroke-linejoin="round"/>
<line x1="0" y1="138.564" x2="200" y2="138.564" fill="none" stroke="#d0d8e8" stroke-width="0.5" stroke-linecap="round" stroke-linejoin="round"/>
<line x1="0" y1="155.885" x2="200" y2="155.885" fill="none" stroke="#d0d8e8" stroke-width="0.5" stroke-linecap="round" stroke-linejoin="round"/>
<line x1="0" y1="173.205" x2="200" y2="173.205" fill="none" stroke="#d0d8e8" stroke-width="0.5" stroke-linecap="round" stroke-linejoin="round"/>
<line x1="0" y1="190.526" x2="200" y2="190.526" fill="none" stroke="#d0d8e8" stroke-width="0.5" stroke-linecap="round" stroke-linejoin="round"/>
<line x1="0" y1="207.846" x2="200" y2="207.846" fill="none" stroke="#d0d8e8" stroke-width="0.5" stroke-linecap="round" stroke-linejoin="round"/>
<line x1="0" y1="225.167" x2="200" y2="225.167" fill="none" stroke="#d0d8e8" stroke-width="0.5" stroke-linecap="round" stroke-linejoin="round"/>
<line x1="0" y1="242.487" x2="200" y2="242.487" fill="none" stroke="#d0d8e8" stroke-width="0.5" stroke-linecap="round" stroke-linejoin="round"/>
<line x1="0" y1="259.808" x2="200" y2="259.808" fill="none" stroke="#d0d8e8" stroke-width="0.5" stroke-linecap="round" stroke-linejoin="round"/>
<line x1="0" y1="277.128" x2="200" y2="277.128" fill="none" stroke="#d0d8e8" stroke-width="0.5" stroke-linecap="round" stroke-linejoin="round"/>
<line x1="0" y1="294.449" x2="200" y2="294.449" fill="none" stroke="#d0d8e8" stroke-width="0.5" stroke-linecap="round" stroke-linejoin="round"/>
<line x1="0" y1="277.128" x2="13.205" y2="300" fill="none" stroke="#d0d8e8" stroke-width="0.5" stroke-linecap="round" stroke-linejoin="round"/>
<line x1="0" y1="242.487" x2="33.205" y2="300" fill="none" stroke="#d0d8e8" stroke-width="0.5" stroke-linecap="round" stroke-linejoin="round"/>
<line x1="0" y1="207.846" x2="53.205" y2="300" fill="none" stroke="#d0d8e8" stroke-width="0.5" stroke-linecap="round" stroke-linejoin="round"/>
<line x1="0" y1="173.205" x2="73.205" y2="300" fill="none" stroke="#d0d8e8" stroke-width="0.5" stroke-linecap="round" stroke-linejoin="round"/>
<line x1="0" y1="138.564" x2="93.205" y2="300" fill="none" stroke="#d0d8e8" stroke-width="0.5" stroke-linecap="round" stroke-linejoin="round"/>
<line x1="0" y1="103.923" x2="113.205" y2="300" fill="none" stroke="#d0d8e8" stroke-width="0.5" stroke-linecap="round" stroke-linejoin="round"/>
<line x1="0" y1="69.282" x2="133.205" y2="300" fill="none" stroke="#d0d8e8" stroke-width="0.5" stroke-linecap="round" stroke-linejoin="round"/>
<line x1="0" y1="34.641" x2="153.205" y2="300" fill="none" stroke="#d0d8e8" stroke-width="0.5" stroke-linecap="round" stroke-linejoin="round"/>
<line x1="0" y1="0" x2="173.205" y2="300" fill="none" stroke="#d0d8e8" stroke-width="0.5" stroke-linecap="round" stroke-linejoin="round"/>
<line x1="20" y1="0" x2="193.205" y2="300" fill="none" stroke="#d0d8e8" stroke-width="0.5" stroke-linecap="round" stroke-linejoin="round"/>
<line x1="40" y1="0" x2="200" y2="277.128" fill="none" stroke="#d0d8e8" stroke-width="0.5" stroke-linecap="round" stroke-linejoin="round"/>
<line x1="60" y1="0" x2="200" y2="242.487" fill="none" stroke="#d0d8e8" stroke-width="0.5" stroke-linecap="round" stroke-linejoin="round"/>
<line x1="80" y1="0" x2="200" y2="207.846" fill="none" stroke="#d0d8e8" stroke-width="0.5" stroke-linecap="round" stroke-linejoin="round"/>
<line x1="100" y1="0" x2="200" y2="173.205" fill="none" stroke="#d0d8e8" stroke-width="0.5" stroke-linecap="round" stroke-linejoin="round"/>
<line x1="120" y1="0" x2="200" y2="138.564" fill="none" stroke="#d0d8e8" stroke-width="0.5" stroke-linecap="round" stroke-linejoin="round"/>
<line x1="140" y1="0" x2="200" y2="103.923" fill="none" stroke="#d0d8e8" stroke-width="0.5" stroke-linecap="round" stroke-linejoin="round"/>
<line x1="160" y1="0" x2="200" y2="69.282" fill="none" stroke="#d0d8e8" stroke-width="0.5" stroke-linecap="round" stroke-linejoin="round"/>
<line x1="180" y1="0" x2="200" y2="34.641" fill="none" stroke="#d0d8e8" stroke-width="0.5" stroke-linecap="round" stroke-linejoin="round"/>
<line x1="20" y1="0" x2="0" y2="34.641" fill="none" stroke="#d0d8e8" stroke-width="0.5" stroke-linecap="round" stroke-linejoin="round"/>
<line x1="40" y1="0" x2="0" y2="69.282" fill="none" stroke="#d0d8e8" stroke-width="0.5" stroke-linecap="round" stroke-linejoin="round"/>
<line x1="60" y1="0" x2="0" y2="103.923" fill="none" stroke="#d0d8e8" stroke-width="0.5" stroke-linecap="round" stroke-linejoin="round"/>
<line x1="80" y1="0" x2="0" y2="138.564" fill="none" stroke="#d0d8e8" stroke-width="0.5" stroke-linecap="round" stroke-linejoin="round"/>
<line x1="100" y1="0" x2="0" y2="173.205" fill="none" stroke="#d0d8e8" stroke-width="0.5" stroke-linecap="round" stroke-linejoin="round"/>
<line x1="120" y1="0" x2="0" y2="207.846" fill="none" stroke="#d0d8e8" stroke-width="0.5" stroke-linecap="round" stroke-linejoin="round"/>
<line x1="140" y1="0" x2="0" y2="242.487" fill="none" stroke="#d0d8e8" stroke-width="0.5" stroke-linecap="round" stroke-linejoin="round"/>
<line x1="160" y1="0" x2="0" y2="277.128" fill="none" stroke="#d0d8e8" stroke-width="0.5" stroke-linecap="round" stroke-linejoin="round"/>
<line x1="180" y1="0" x2="6.795" y2="300" fill="none" stroke="#d0d8e8" stroke-width="0.5" stroke-linecap="round" stroke-linejoin="round"/>
<line x1="200" y1="0" x2="26.795" y2="300" fill="none" stroke="#d0d8e8" stroke-width="0.5" stroke-linecap="round" stroke-linejoin="round"/>
<line x1="200" y1="34.641" x2="46.795" y2="300" fill="none" stroke="#d0d8e8" stroke-width="0.5" stroke-linecap="round" stroke-linejoin="round"/>
<line x1="200" y1="69.282" x2="66.795" y2="300" fill="none" stroke="#d0d8e8" stroke-width="0.5" stroke-linecap="round" stroke-linejoin="round"/>
<line x1="200" y1="103.923" x2="86.795" y2="300" fill="none" stroke="#d0d8e8" stroke-width="0.5" stroke-linecap="round" stroke-linejoin="round"/>
<line x1="200" y1="138.564" x2="106.795" y2="300" fill="none" stroke="#d0d8e8" stroke-width="0.5" stroke-linecap="round" stroke-linejoin="round"/>
<line x1="200" y1="173.205" x2="126.795" y2="300" fill="none" stroke="#d0d8e8" stroke-width="0.5" stroke-linecap="round" stroke-linejoin="round"/>
<line x1="200" y1="207.846" x2="146.795" y2="300" fill="none" stroke="#d0d8e8" stroke-width="0.5" stroke-linecap="round" stroke-linejoin="round"/>
<line x1="200" y1="242.487" x2="166.795" y2="300" fill="none" stroke="#d0d8e8" stroke-width="0.5" stroke-linecap="round" stroke-linejoin="round"/>
<line x1="200" y1="277.128" x2="186.795" y2="300" fill="none" stroke="#d0d8e8" stroke-width="0.5" stroke-linecap="round" stroke-linejoin="round"/>
</g>
<g id="strokes">
</g>
</svg>
