<svg xmlns="http://www.w3.org/2000/svg" width="1024" height="1024" viewBox="0 0 1024 1024">
<title>Cemetery Door</title>
<defs>
<radialGradient id="navy" cx="50%" cy="38%" r="75%"><stop offset="0" stop-color="#26385e"/><stop offset="1" stop-color="#0d1424"/></radialGradient>
<linearGradient id="lamp" x1="0" y1="0" x2="0" y2="1"><stop offset="0" stop-color="#f6e2a8"/><stop offset="1" stop-color="#a8762e"/></linearGradient>
<clipPath id="archclip"><path d="M300 900 L300 480 A212 212 0 0 1 724 480 L724 900 Z"/></clipPath>
</defs>
 <rect width="1024" height="1024" fill="url(#navy)"/>
 <path d="M262 920 L262 480 A250 250 0 0 1 762 480 L762 920 Z" fill="#0a1020"/>
 <path d="M300 900 L300 480 A212 212 0 0 1 724 480 L724 900 Z" fill="url(#lamp)"/>
 <g clip-path="url(#archclip)"><rect x="318" y="494" width="28" height="66" rx="2" fill="#4a3326"/><rect x="348" y="469" width="20" height="91" rx="2" fill="#1d2a44"/><rect x="372" y="471" width="19" height="89" rx="2" fill="#2b3a5c"/><rect x="393" y="476" width="20" height="84" rx="2" fill="#4a3326"/><rect x="415" y="498" width="25" height="62" rx="2" fill="#24304d"/><rect x="445" y="467" width="19" height="93" rx="2" fill="#1d2a44"/><rect x="467" y="467" width="19" height="93" rx="2" fill="#24304d"/><rect x="491" y="489" width="19" height="71" rx="2" fill="#1d2a44"/><rect x="513" y="477" width="27" height="83" rx="2" fill="#2b3a5c"/><rect x="542" y="468" width="27" height="92" rx="2" fill="#2b3a5c"/><rect x="571" y="480" width="24" height="80" rx="2" fill="#1d2a44"/><rect x="597" y="490" width="19" height="70" rx="2" fill="#4a3326"/><rect x="621" y="474" width="28" height="86" rx="2" fill="#24304d"/><rect x="654" y="484" width="29" height="76" rx="2" fill="#2b3a5c"/><rect x="686" y="498" width="25" height="62" rx="2" fill="#24304d"/><rect x="300" y="560" width="424" height="12" fill="#14203a"/><rect x="318" y="592" width="34" height="98" rx="2" fill="#3a2f2a"/><rect x="357" y="585" width="27" height="105" rx="2" fill="#1d2a44"/><rect x="386" y="597" width="34" height="93" rx="2" fill="#2b3a5c"/><rect x="424" y="592" width="22" height="98" rx="2" fill="#4a3326"/><rect x="448" y="588" width="20" height="102" rx="2" fill="#24304d"/><rect x="472" y="601" width="28" height="89" rx="2" fill="#24304d"/><rect x="505" y="613" width="30" height="77" rx="3" fill="#f6ead0" stroke="#7a5420" stroke-width="3"/><rect x="539" y="600" width="30" height="90" rx="3" fill="#f6ead0" stroke="#7a5420" stroke-width="3"/><rect x="573" y="619" width="33" height="71" rx="2" fill="#1d2a44"/><rect x="610" y="605" width="32" height="85" rx="2" fill="#4a3326"/><rect x="646" y="594" width="18" height="96" rx="2" fill="#3a2f2a"/><rect x="667" y="592" width="21" height="98" rx="2" fill="#1d2a44"/><rect x="691" y="615" width="27" height="75" rx="2" fill="#2b3a5c"/><rect x="300" y="690" width="424" height="12" fill="#14203a"/><rect x="318" y="717" width="30" height="103" rx="2" fill="#1d2a44"/><rect x="351" y="723" width="32" height="97" rx="2" fill="#24304d"/><rect x="387" y="721" width="22" height="99" rx="2" fill="#24304d"/><rect x="413" y="726" width="31" height="94" rx="2" fill="#4a3326"/><rect x="447" y="743" width="22" height="77" rx="2" fill="#2b3a5c"/><rect x="472" y="734" width="25" height="86" rx="2" fill="#1d2a44"/><rect x="502" y="732" width="23" height="88" rx="2" fill="#3a2f2a"/><rect x="527" y="722" width="22" height="98" rx="2" fill="#24304d"/><rect x="553" y="740" width="28" height="80" rx="2" fill="#24304d"/><rect x="583" y="713" width="32" height="107" rx="2" fill="#4a3326"/><rect x="620" y="723" width="30" height="97" rx="2" fill="#1d2a44"/><rect x="655" y="745" width="30" height="75" rx="2" fill="#2b3a5c"/><rect x="687" y="720" width="24" height="100" rx="2" fill="#2b3a5c"/><rect x="300" y="820" width="424" height="12" fill="#14203a"/></g>
 <rect x="230" y="900" width="564" height="34" rx="4" fill="#0a1020"/>
</svg>
